<?xml version="1.0" encoding="UTF-8" standalone="no"?>
<!DOCTYPE svg PUBLIC "-//W3C//DTD SVG 1.1//EN"
 "http://www.w3.org/Graphics/SVG/1.1/DTD/svg11.dtd">
<!-- Generated by graphviz version 12.2.1 (0)
 -->
<!-- Pages: 1 -->
<svg width="174pt" height="263pt"
 viewBox="0.00 0.00 174.43 263.00" xmlns="http://www.w3.org/2000/svg" xmlns:xlink="http://www.w3.org/1999/xlink">
<g id="graph0" class="graph" transform="scale(1 1) rotate(0) translate(4 259)">
<polygon fill="white" stroke="none" points="-4,4 -4,-259 170.43,-259 170.43,4 -4,4"/>
<g id="clust1" class="cluster">
<title>cluster_0</title>
<polygon fill="none" stroke="white" points="8,-8 8,-247 60,-247 60,-8 8,-8"/>
<text text-anchor="middle" x="34" y="-230.4" font-family="Times New Roman,serif" font-size="14.00">inputs</text>
</g>
<g id="clust2" class="cluster">
<title>cluster_2</title>
<polygon fill="none" stroke="white" points="106.43,-88 106.43,-165 158.43,-165 158.43,-88 106.43,-88"/>
<text text-anchor="middle" x="132.43" y="-148.4" font-family="Times New Roman,serif" font-size="14.00">output</text>
</g>
<!-- x[0] -->
<g id="node1" class="node">
<title>x[0]</title>
<ellipse fill="none" stroke="black" cx="34" cy="-196" rx="18" ry="18"/>
<text text-anchor="middle" x="34" y="-191.8" font-family="Times New Roman,serif" font-size="14.00">x[0]</text>
</g>
<!-- y -->
<g id="node5" class="node">
<title>y</title>
<ellipse fill="none" stroke="black" cx="132.43" cy="-114" rx="18" ry="18"/>
<text text-anchor="middle" x="132.43" y="-109.8" font-family="Times New Roman,serif" font-size="14.00">y</text>
</g>
<!-- x[0]&#45;&gt;y -->
<g id="edge1" class="edge">
<title>x[0]&#45;&gt;y</title>
<path fill="none" stroke="black" d="M48.41,-184.6C64.24,-171.13 90.8,-148.55 109.61,-132.56"/>
<polygon fill="black" stroke="black" points="111.64,-135.43 116.99,-126.29 107.1,-130.1 111.64,-135.43"/>
<text text-anchor="middle" x="83.22" y="-174.26" font-family="Times New Roman,serif" font-size="14.00">w[0]</text>
</g>
<!-- x[1] -->
<g id="node2" class="node">
<title>x[1]</title>
<ellipse fill="none" stroke="black" cx="34" cy="-142" rx="18" ry="18"/>
<text text-anchor="middle" x="34" y="-137.8" font-family="Times New Roman,serif" font-size="14.00">x[1]</text>
</g>
<!-- x[1]&#45;&gt;y -->
<g id="edge2" class="edge">
<title>x[1]&#45;&gt;y</title>
<path fill="none" stroke="black" d="M51.8,-137.12C66.18,-132.95 87.16,-126.85 103.98,-121.97"/>
<polygon fill="black" stroke="black" points="104.75,-125.39 113.38,-119.24 102.8,-118.67 104.75,-125.39"/>
<text text-anchor="middle" x="83.22" y="-135.53" font-family="Times New Roman,serif" font-size="14.00">w[1]</text>
</g>
<!-- x[2] -->
<g id="node3" class="node">
<title>x[2]</title>
<ellipse fill="none" stroke="black" cx="34" cy="-88" rx="18" ry="18"/>
<text text-anchor="middle" x="34" y="-83.8" font-family="Times New Roman,serif" font-size="14.00">x[2]</text>
</g>
<!-- x[2]&#45;&gt;y -->
<g id="edge3" class="edge">
<title>x[2]&#45;&gt;y</title>
<path fill="none" stroke="black" d="M51.8,-92.53C66.18,-96.41 87.16,-102.06 103.98,-106.6"/>
<polygon fill="black" stroke="black" points="102.8,-109.91 113.37,-109.13 104.62,-103.15 102.8,-109.91"/>
<text text-anchor="middle" x="83.22" y="-103.4" font-family="Times New Roman,serif" font-size="14.00">w[2]</text>
</g>
<!-- x[3] -->
<g id="node4" class="node">
<title>x[3]</title>
<ellipse fill="none" stroke="black" cx="34" cy="-34" rx="18" ry="18"/>
<text text-anchor="middle" x="34" y="-29.8" font-family="Times New Roman,serif" font-size="14.00">x[3]</text>
</g>
<!-- x[3]&#45;&gt;y -->
<g id="edge4" class="edge">
<title>x[3]&#45;&gt;y</title>
<path fill="none" stroke="black" d="M48.41,-45.12C64.08,-58.13 90.26,-79.84 109.03,-95.42"/>
<polygon fill="black" stroke="black" points="106.73,-98.06 116.66,-101.75 111.2,-92.67 106.73,-98.06"/>
<text text-anchor="middle" x="83.22" y="-78.4" font-family="Times New Roman,serif" font-size="14.00">w[3]</text>
</g>
</g>
</svg>