<?xml version="1.0" encoding="UTF-8" standalone="no"?>
<!DOCTYPE svg PUBLIC "-//W3C//DTD SVG 1.1//EN"
 "http://www.w3.org/Graphics/SVG/1.1/DTD/svg11.dtd">
<!-- Generated by graphviz version 12.2.1 (0)
 -->
<!-- Pages: 1 -->
<svg width="380pt" height="263pt"
 viewBox="0.00 0.00 380.17 263.00" xmlns="http://www.w3.org/2000/svg" xmlns:xlink="http://www.w3.org/1999/xlink">
<g id="graph0" class="graph" transform="scale(1 1) rotate(0) translate(4 259)">
<polygon fill="white" stroke="none" points="-4,4 -4,-259 376.17,-259 376.17,4 -4,4"/>
<g id="clust1" class="cluster">
<title>cluster_0</title>
<polygon fill="none" stroke="white" points="8,-8 8,-247 60,-247 60,-8 8,-8"/>
<text text-anchor="middle" x="34" y="-230.4" font-family="Times New Roman,serif" font-size="14.00">inputs</text>
</g>
<g id="clust2" class="cluster">
<title>cluster_1</title>
<polygon fill="none" stroke="white" points="80,-35 80,-220 176.08,-220 176.08,-35 80,-35"/>
<text text-anchor="middle" x="128.04" y="-203.4" font-family="Times New Roman,serif" font-size="14.00">hidden layer 1</text>
</g>
<g id="clust3" class="cluster">
<title>cluster_2</title>
<polygon fill="none" stroke="white" points="196.08,-35 196.08,-220 292.17,-220 292.17,-35 196.08,-35"/>
<text text-anchor="middle" x="244.12" y="-203.4" font-family="Times New Roman,serif" font-size="14.00">hidden layer 2</text>
</g>
<g id="clust4" class="cluster">
<title>cluster_3</title>
<polygon fill="none" stroke="white" points="312.17,-89 312.17,-166 364.17,-166 364.17,-89 312.17,-89"/>
<text text-anchor="middle" x="338.17" y="-149.4" font-family="Times New Roman,serif" font-size="14.00">output</text>
</g>
<!-- x[0] -->
<g id="node1" class="node">
<title>x[0]</title>
<ellipse fill="none" stroke="black" cx="34" cy="-34" rx="18" ry="18"/>
<text text-anchor="middle" x="34" y="-29.8" font-family="Times New Roman,serif" font-size="14.00">x[0]</text>
</g>
<!-- h1[0] -->
<g id="node5" class="node">
<title>h1[0]</title>
<ellipse fill="none" stroke="black" cx="127.54" cy="-115" rx="18" ry="18"/>
<text text-anchor="middle" x="127.54" y="-110.8" font-family="Times New Roman,serif" font-size="14.00">h1[0]</text>
</g>
<!-- x[0]&#45;&gt;h1[0] -->
<g id="edge1" class="edge">
<title>x[0]&#45;&gt;h1[0]</title>
<path fill="none" stroke="black" d="M48.12,-45.61C62.93,-58.72 87.28,-80.26 104.92,-95.87"/>
<polygon fill="black" stroke="black" points="102.51,-98.41 112.32,-102.41 107.15,-93.17 102.51,-98.41"/>
</g>
<!-- h1[1] -->
<g id="node6" class="node">
<title>h1[1]</title>
<ellipse fill="none" stroke="black" cx="127.54" cy="-169" rx="18" ry="18"/>
<text text-anchor="middle" x="127.54" y="-164.8" font-family="Times New Roman,serif" font-size="14.00">h1[1]</text>
</g>
<!-- x[0]&#45;&gt;h1[1] -->
<g id="edge2" class="edge">
<title>x[0]&#45;&gt;h1[1]</title>
<path fill="none" stroke="black" d="M44.97,-48.7C60.65,-71.83 91.24,-116.95 110.18,-144.87"/>
<polygon fill="black" stroke="black" points="107.22,-146.75 115.73,-153.06 113.02,-142.82 107.22,-146.75"/>
</g>
<!-- h1[2] -->
<g id="node7" class="node">
<title>h1[2]</title>
<ellipse fill="none" stroke="black" cx="127.54" cy="-61" rx="18" ry="18"/>
<text text-anchor="middle" x="127.54" y="-56.8" font-family="Times New Roman,serif" font-size="14.00">h1[2]</text>
</g>
<!-- x[0]&#45;&gt;h1[2] -->
<g id="edge3" class="edge">
<title>x[0]&#45;&gt;h1[2]</title>
<path fill="none" stroke="black" d="M51.79,-38.95C64.95,-42.83 83.55,-48.32 98.9,-52.85"/>
<polygon fill="black" stroke="black" points="97.82,-56.18 108.41,-55.65 99.8,-49.46 97.82,-56.18"/>
</g>
<!-- x[1] -->
<g id="node2" class="node">
<title>x[1]</title>
<ellipse fill="none" stroke="black" cx="34" cy="-88" rx="18" ry="18"/>
<text text-anchor="middle" x="34" y="-83.8" font-family="Times New Roman,serif" font-size="14.00">x[1]</text>
</g>
<!-- x[1]&#45;&gt;h1[0] -->
<g id="edge4" class="edge">
<title>x[1]&#45;&gt;h1[0]</title>
<path fill="none" stroke="black" d="M51.79,-92.95C64.95,-96.83 83.55,-102.32 98.9,-106.85"/>
<polygon fill="black" stroke="black" points="97.82,-110.18 108.41,-109.65 99.8,-103.46 97.82,-110.18"/>
</g>
<!-- x[1]&#45;&gt;h1[1] -->
<g id="edge5" class="edge">
<title>x[1]&#45;&gt;h1[1]</title>
<path fill="none" stroke="black" d="M48.12,-99.61C62.93,-112.72 87.28,-134.26 104.92,-149.87"/>
<polygon fill="black" stroke="black" points="102.51,-152.41 112.32,-156.41 107.15,-147.17 102.51,-152.41"/>
</g>
<!-- x[1]&#45;&gt;h1[2] -->
<g id="edge6" class="edge">
<title>x[1]&#45;&gt;h1[2]</title>
<path fill="none" stroke="black" d="M51.79,-83.05C64.95,-79.17 83.55,-73.68 98.9,-69.15"/>
<polygon fill="black" stroke="black" points="99.8,-72.54 108.41,-66.35 97.82,-65.82 99.8,-72.54"/>
</g>
<!-- x[2] -->
<g id="node3" class="node">
<title>x[2]</title>
<ellipse fill="none" stroke="black" cx="34" cy="-142" rx="18" ry="18"/>
<text text-anchor="middle" x="34" y="-137.8" font-family="Times New Roman,serif" font-size="14.00">x[2]</text>
</g>
<!-- x[2]&#45;&gt;h1[0] -->
<g id="edge7" class="edge">
<title>x[2]&#45;&gt;h1[0]</title>
<path fill="none" stroke="black" d="M51.79,-137.05C64.95,-133.17 83.55,-127.68 98.9,-123.15"/>
<polygon fill="black" stroke="black" points="99.8,-126.54 108.41,-120.35 97.82,-119.82 99.8,-126.54"/>
</g>
<!-- x[2]&#45;&gt;h1[1] -->
<g id="edge8" class="edge">
<title>x[2]&#45;&gt;h1[1]</title>
<path fill="none" stroke="black" d="M51.79,-146.95C64.95,-150.83 83.55,-156.32 98.9,-160.85"/>
<polygon fill="black" stroke="black" points="97.82,-164.18 108.41,-163.65 99.8,-157.46 97.82,-164.18"/>
</g>
<!-- x[2]&#45;&gt;h1[2] -->
<g id="edge9" class="edge">
<title>x[2]&#45;&gt;h1[2]</title>
<path fill="none" stroke="black" d="M48.12,-130.39C62.93,-117.28 87.28,-95.74 104.92,-80.13"/>
<polygon fill="black" stroke="black" points="107.15,-82.83 112.32,-73.59 102.51,-77.59 107.15,-82.83"/>
</g>
<!-- x[3] -->
<g id="node4" class="node">
<title>x[3]</title>
<ellipse fill="none" stroke="black" cx="34" cy="-196" rx="18" ry="18"/>
<text text-anchor="middle" x="34" y="-191.8" font-family="Times New Roman,serif" font-size="14.00">x[3]</text>
</g>
<!-- x[3]&#45;&gt;h1[0] -->
<g id="edge10" class="edge">
<title>x[3]&#45;&gt;h1[0]</title>
<path fill="none" stroke="black" d="M48.12,-184.39C62.93,-171.28 87.28,-149.74 104.92,-134.13"/>
<polygon fill="black" stroke="black" points="107.15,-136.83 112.32,-127.59 102.51,-131.59 107.15,-136.83"/>
</g>
<!-- x[3]&#45;&gt;h1[1] -->
<g id="edge11" class="edge">
<title>x[3]&#45;&gt;h1[1]</title>
<path fill="none" stroke="black" d="M51.79,-191.05C64.95,-187.17 83.55,-181.68 98.9,-177.15"/>
<polygon fill="black" stroke="black" points="99.8,-180.54 108.41,-174.35 97.82,-173.82 99.8,-180.54"/>
</g>
<!-- x[3]&#45;&gt;h1[2] -->
<g id="edge12" class="edge">
<title>x[3]&#45;&gt;h1[2]</title>
<path fill="none" stroke="black" d="M44.97,-181.3C60.65,-158.17 91.24,-113.05 110.18,-85.13"/>
<polygon fill="black" stroke="black" points="113.02,-87.18 115.73,-76.94 107.22,-83.25 113.02,-87.18"/>
</g>
<!-- h2[0] -->
<g id="node8" class="node">
<title>h2[0]</title>
<ellipse fill="none" stroke="black" cx="243.62" cy="-115" rx="18" ry="18"/>
<text text-anchor="middle" x="243.62" y="-110.8" font-family="Times New Roman,serif" font-size="14.00">h2[0]</text>
</g>
<!-- h1[0]&#45;&gt;h2[0] -->
<g id="edge13" class="edge">
<title>h1[0]&#45;&gt;h2[0]</title>
<path fill="none" stroke="black" d="M145.87,-115C163.88,-115 192.37,-115 213.78,-115"/>
<polygon fill="black" stroke="black" points="213.62,-118.5 223.62,-115 213.62,-111.5 213.62,-118.5"/>
</g>
<!-- h2[1] -->
<g id="node9" class="node">
<title>h2[1]</title>
<ellipse fill="none" stroke="black" cx="243.62" cy="-169" rx="18" ry="18"/>
<text text-anchor="middle" x="243.62" y="-164.8" font-family="Times New Roman,serif" font-size="14.00">h2[1]</text>
</g>
<!-- h1[0]&#45;&gt;h2[1] -->
<g id="edge14" class="edge">
<title>h1[0]&#45;&gt;h2[1]</title>
<path fill="none" stroke="black" d="M144.4,-122.51C163.05,-131.33 194.27,-146.11 216.5,-156.63"/>
<polygon fill="black" stroke="black" points="214.99,-159.79 225.53,-160.91 217.99,-153.47 214.99,-159.79"/>
</g>
<!-- h2[2] -->
<g id="node10" class="node">
<title>h2[2]</title>
<ellipse fill="none" stroke="black" cx="243.62" cy="-61" rx="18" ry="18"/>
<text text-anchor="middle" x="243.62" y="-56.8" font-family="Times New Roman,serif" font-size="14.00">h2[2]</text>
</g>
<!-- h1[0]&#45;&gt;h2[2] -->
<g id="edge15" class="edge">
<title>h1[0]&#45;&gt;h2[2]</title>
<path fill="none" stroke="black" d="M144.4,-107.49C163.05,-98.67 194.27,-83.89 216.5,-73.37"/>
<polygon fill="black" stroke="black" points="217.99,-76.53 225.53,-69.09 214.99,-70.21 217.99,-76.53"/>
</g>
<!-- h1[1]&#45;&gt;h2[0] -->
<g id="edge16" class="edge">
<title>h1[1]&#45;&gt;h2[0]</title>
<path fill="none" stroke="black" d="M144.4,-161.49C163.05,-152.67 194.27,-137.89 216.5,-127.37"/>
<polygon fill="black" stroke="black" points="217.99,-130.53 225.53,-123.09 214.99,-124.21 217.99,-130.53"/>
</g>
<!-- h1[1]&#45;&gt;h2[1] -->
<g id="edge17" class="edge">
<title>h1[1]&#45;&gt;h2[1]</title>
<path fill="none" stroke="black" d="M145.87,-169C163.88,-169 192.37,-169 213.78,-169"/>
<polygon fill="black" stroke="black" points="213.62,-172.5 223.62,-169 213.62,-165.5 213.62,-172.5"/>
</g>
<!-- h1[1]&#45;&gt;h2[2] -->
<g id="edge18" class="edge">
<title>h1[1]&#45;&gt;h2[2]</title>
<path fill="none" stroke="black" d="M141.19,-157.03C160.63,-138.62 198.09,-103.16 221.64,-80.86"/>
<polygon fill="black" stroke="black" points="223.97,-83.48 228.82,-74.06 219.16,-78.4 223.97,-83.48"/>
</g>
<!-- h1[2]&#45;&gt;h2[0] -->
<g id="edge19" class="edge">
<title>h1[2]&#45;&gt;h2[0]</title>
<path fill="none" stroke="black" d="M144.4,-68.51C163.05,-77.33 194.27,-92.11 216.5,-102.63"/>
<polygon fill="black" stroke="black" points="214.99,-105.79 225.53,-106.91 217.99,-99.47 214.99,-105.79"/>
</g>
<!-- h1[2]&#45;&gt;h2[1] -->
<g id="edge20" class="edge">
<title>h1[2]&#45;&gt;h2[1]</title>
<path fill="none" stroke="black" d="M141.19,-72.97C160.63,-91.38 198.09,-126.84 221.64,-149.14"/>
<polygon fill="black" stroke="black" points="219.16,-151.6 228.82,-155.94 223.97,-146.52 219.16,-151.6"/>
</g>
<!-- h1[2]&#45;&gt;h2[2] -->
<g id="edge21" class="edge">
<title>h1[2]&#45;&gt;h2[2]</title>
<path fill="none" stroke="black" d="M145.87,-61C163.88,-61 192.37,-61 213.78,-61"/>
<polygon fill="black" stroke="black" points="213.62,-64.5 223.62,-61 213.62,-57.5 213.62,-64.5"/>
</g>
<!-- y -->
<g id="node11" class="node">
<title>y</title>
<ellipse fill="none" stroke="black" cx="338.17" cy="-115" rx="18" ry="18"/>
<text text-anchor="middle" x="338.17" y="-110.8" font-family="Times New Roman,serif" font-size="14.00">y</text>
</g>
<!-- h2[0]&#45;&gt;y -->
<g id="edge22" class="edge">
<title>h2[0]&#45;&gt;y</title>
<path fill="none" stroke="black" d="M262.03,-115C275.09,-115 293.25,-115 308.44,-115"/>
<polygon fill="black" stroke="black" points="308.32,-118.5 318.32,-115 308.32,-111.5 308.32,-118.5"/>
</g>
<!-- h2[1]&#45;&gt;y -->
<g id="edge23" class="edge">
<title>h2[1]&#45;&gt;y</title>
<path fill="none" stroke="black" d="M259.49,-160.32C273.71,-152.03 295.41,-139.36 312.27,-129.53"/>
<polygon fill="black" stroke="black" points="313.85,-132.66 320.72,-124.6 310.32,-126.61 313.85,-132.66"/>
</g>
<!-- h2[2]&#45;&gt;y -->
<g id="edge24" class="edge">
<title>h2[2]&#45;&gt;y</title>
<path fill="none" stroke="black" d="M259.49,-69.68C273.71,-77.97 295.41,-90.64 312.27,-100.47"/>
<polygon fill="black" stroke="black" points="310.32,-103.39 320.72,-105.4 313.85,-97.34 310.32,-103.39"/>
</g>
</g>
</svg>