<?xml version="1.0" encoding="UTF-8" standalone="no"?>
<!DOCTYPE svg PUBLIC "-//W3C//DTD SVG 1.1//EN"
 "http://www.w3.org/Graphics/SVG/1.1/DTD/svg11.dtd">
<!-- Generated by graphviz version 12.2.1 (0)
 -->
<!-- Pages: 1 -->
<svg width="254pt" height="263pt"
 viewBox="0.00 0.00 253.58 263.00" xmlns="http://www.w3.org/2000/svg" xmlns:xlink="http://www.w3.org/1999/xlink">
<g id="graph0" class="graph" transform="scale(1 1) rotate(0) translate(4 259)">
<polygon fill="white" stroke="none" points="-4,4 -4,-259 249.58,-259 249.58,4 -4,4"/>
<g id="clust1" class="cluster">
<title>cluster_0</title>
<polygon fill="none" stroke="white" points="8,-8 8,-247 60,-247 60,-8 8,-8"/>
<text text-anchor="middle" x="34" y="-230.4" font-family="Times New Roman,serif" font-size="14.00">inputs</text>
</g>
<g id="clust2" class="cluster">
<title>cluster_1</title>
<polygon fill="none" stroke="white" points="80,-35 80,-220 165.58,-220 165.58,-35 80,-35"/>
<text text-anchor="middle" x="122.79" y="-203.4" font-family="Times New Roman,serif" font-size="14.00">hidden layer</text>
</g>
<g id="clust3" class="cluster">
<title>cluster_2</title>
<polygon fill="none" stroke="white" points="185.58,-89 185.58,-166 237.58,-166 237.58,-89 185.58,-89"/>
<text text-anchor="middle" x="211.58" y="-149.4" font-family="Times New Roman,serif" font-size="14.00">output</text>
</g>
<!-- x[0] -->
<g id="node1" class="node">
<title>x[0]</title>
<ellipse fill="none" stroke="black" cx="34" cy="-34" rx="18" ry="18"/>
<text text-anchor="middle" x="34" y="-29.8" font-family="Times New Roman,serif" font-size="14.00">x[0]</text>
</g>
<!-- h0 -->
<g id="node5" class="node">
<title>h0</title>
<ellipse fill="none" stroke="black" cx="122.29" cy="-115" rx="18" ry="18"/>
<text text-anchor="middle" x="122.29" y="-110.8" font-family="Times New Roman,serif" font-size="14.00">h[0]</text>
</g>
<!-- x[0]&#45;&gt;h0 -->
<g id="edge1" class="edge">
<title>x[0]&#45;&gt;h0</title>
<path fill="none" stroke="black" d="M47.73,-45.95C61.63,-58.99 84.08,-80.07 100.53,-95.51"/>
<polygon fill="black" stroke="black" points="97.72,-97.67 107.4,-101.96 102.51,-92.57 97.72,-97.67"/>
</g>
<!-- h1 -->
<g id="node6" class="node">
<title>h1</title>
<ellipse fill="none" stroke="black" cx="122.29" cy="-169" rx="18" ry="18"/>
<text text-anchor="middle" x="122.29" y="-164.8" font-family="Times New Roman,serif" font-size="14.00">h[1]</text>
</g>
<!-- x[0]&#45;&gt;h1 -->
<g id="edge2" class="edge">
<title>x[0]&#45;&gt;h1</title>
<path fill="none" stroke="black" d="M44.56,-48.96C59.34,-72.07 87.86,-116.69 105.66,-144.54"/>
<polygon fill="black" stroke="black" points="102.53,-146.15 110.87,-152.69 108.43,-142.38 102.53,-146.15"/>
</g>
<!-- h2 -->
<g id="node7" class="node">
<title>h2</title>
<ellipse fill="none" stroke="black" cx="122.29" cy="-61" rx="18" ry="18"/>
<text text-anchor="middle" x="122.29" y="-56.8" font-family="Times New Roman,serif" font-size="14.00">h[2]</text>
</g>
<!-- x[0]&#45;&gt;h2 -->
<g id="edge3" class="edge">
<title>x[0]&#45;&gt;h2</title>
<path fill="none" stroke="black" d="M51.64,-39.21C63.58,-42.94 79.93,-48.06 93.8,-52.4"/>
<polygon fill="black" stroke="black" points="92.67,-55.71 103.26,-55.36 94.76,-49.03 92.67,-55.71"/>
</g>
<!-- x[1] -->
<g id="node2" class="node">
<title>x[1]</title>
<ellipse fill="none" stroke="black" cx="34" cy="-88" rx="18" ry="18"/>
<text text-anchor="middle" x="34" y="-83.8" font-family="Times New Roman,serif" font-size="14.00">x[1]</text>
</g>
<!-- x[1]&#45;&gt;h0 -->
<g id="edge4" class="edge">
<title>x[1]&#45;&gt;h0</title>
<path fill="none" stroke="black" d="M51.64,-93.21C63.58,-96.94 79.93,-102.06 93.8,-106.4"/>
<polygon fill="black" stroke="black" points="92.67,-109.71 103.26,-109.36 94.76,-103.03 92.67,-109.71"/>
</g>
<!-- x[1]&#45;&gt;h1 -->
<g id="edge5" class="edge">
<title>x[1]&#45;&gt;h1</title>
<path fill="none" stroke="black" d="M47.73,-99.95C61.63,-112.99 84.08,-134.07 100.53,-149.51"/>
<polygon fill="black" stroke="black" points="97.72,-151.67 107.4,-155.96 102.51,-146.57 97.72,-151.67"/>
</g>
<!-- x[1]&#45;&gt;h2 -->
<g id="edge6" class="edge">
<title>x[1]&#45;&gt;h2</title>
<path fill="none" stroke="black" d="M51.64,-82.79C63.58,-79.06 79.93,-73.94 93.8,-69.6"/>
<polygon fill="black" stroke="black" points="94.76,-72.97 103.26,-66.64 92.67,-66.29 94.76,-72.97"/>
</g>
<!-- x[2] -->
<g id="node3" class="node">
<title>x[2]</title>
<ellipse fill="none" stroke="black" cx="34" cy="-142" rx="18" ry="18"/>
<text text-anchor="middle" x="34" y="-137.8" font-family="Times New Roman,serif" font-size="14.00">x[2]</text>
</g>
<!-- x[2]&#45;&gt;h0 -->
<g id="edge7" class="edge">
<title>x[2]&#45;&gt;h0</title>
<path fill="none" stroke="black" d="M51.64,-136.79C63.58,-133.06 79.93,-127.94 93.8,-123.6"/>
<polygon fill="black" stroke="black" points="94.76,-126.97 103.26,-120.64 92.67,-120.29 94.76,-126.97"/>
</g>
<!-- x[2]&#45;&gt;h1 -->
<g id="edge8" class="edge">
<title>x[2]&#45;&gt;h1</title>
<path fill="none" stroke="black" d="M51.64,-147.21C63.58,-150.94 79.93,-156.06 93.8,-160.4"/>
<polygon fill="black" stroke="black" points="92.67,-163.71 103.26,-163.36 94.76,-157.03 92.67,-163.71"/>
</g>
<!-- x[2]&#45;&gt;h2 -->
<g id="edge9" class="edge">
<title>x[2]&#45;&gt;h2</title>
<path fill="none" stroke="black" d="M47.73,-130.05C61.63,-117.01 84.08,-95.93 100.53,-80.49"/>
<polygon fill="black" stroke="black" points="102.51,-83.43 107.4,-74.04 97.72,-78.33 102.51,-83.43"/>
</g>
<!-- x[3] -->
<g id="node4" class="node">
<title>x[3]</title>
<ellipse fill="none" stroke="black" cx="34" cy="-196" rx="18" ry="18"/>
<text text-anchor="middle" x="34" y="-191.8" font-family="Times New Roman,serif" font-size="14.00">x[3]</text>
</g>
<!-- x[3]&#45;&gt;h0 -->
<g id="edge10" class="edge">
<title>x[3]&#45;&gt;h0</title>
<path fill="none" stroke="black" d="M47.73,-184.05C61.63,-171.01 84.08,-149.93 100.53,-134.49"/>
<polygon fill="black" stroke="black" points="102.51,-137.43 107.4,-128.04 97.72,-132.33 102.51,-137.43"/>
</g>
<!-- x[3]&#45;&gt;h1 -->
<g id="edge11" class="edge">
<title>x[3]&#45;&gt;h1</title>
<path fill="none" stroke="black" d="M51.64,-190.79C63.58,-187.06 79.93,-181.94 93.8,-177.6"/>
<polygon fill="black" stroke="black" points="94.76,-180.97 103.26,-174.64 92.67,-174.29 94.76,-180.97"/>
</g>
<!-- x[3]&#45;&gt;h2 -->
<g id="edge12" class="edge">
<title>x[3]&#45;&gt;h2</title>
<path fill="none" stroke="black" d="M44.56,-181.04C59.34,-157.93 87.86,-113.31 105.66,-85.46"/>
<polygon fill="black" stroke="black" points="108.43,-87.62 110.87,-77.31 102.53,-83.85 108.43,-87.62"/>
</g>
<!-- y -->
<g id="node8" class="node">
<title>y</title>
<ellipse fill="none" stroke="black" cx="211.58" cy="-115" rx="18" ry="18"/>
<text text-anchor="middle" x="211.58" y="-110.8" font-family="Times New Roman,serif" font-size="14.00">y</text>
</g>
<!-- h0&#45;&gt;y -->
<g id="edge13" class="edge">
<title>h0&#45;&gt;y</title>
<path fill="none" stroke="black" d="M140.54,-115C152.37,-115 168.36,-115 182.07,-115"/>
<polygon fill="black" stroke="black" points="181.86,-118.5 191.86,-115 181.86,-111.5 181.86,-118.5"/>
</g>
<!-- h1&#45;&gt;y -->
<g id="edge14" class="edge">
<title>h1&#45;&gt;y</title>
<path fill="none" stroke="black" d="M138.1,-159.84C151.27,-151.69 170.77,-139.63 186.23,-130.06"/>
<polygon fill="black" stroke="black" points="187.75,-133.24 194.42,-125 184.07,-127.29 187.75,-133.24"/>
</g>
<!-- h2&#45;&gt;y -->
<g id="edge15" class="edge">
<title>h2&#45;&gt;y</title>
<path fill="none" stroke="black" d="M138.1,-70.16C151.27,-78.31 170.77,-90.37 186.23,-99.94"/>
<polygon fill="black" stroke="black" points="184.07,-102.71 194.42,-105 187.75,-96.76 184.07,-102.71"/>
</g>
</g>
</svg>